# xmcd CD database file
#
# Track frame offsets:
#	150
#	25397
#	55035
#	81428
#	109919
#	144479
#	174550
#	207074
#	245548
#	281806
#
# Disc length: 4107 seconds
#
# Revision: 0
# Processed by: cddbd v1.5.2PL0 Copyright (c) Steve Scherf et al.
# Submitted via: CDex 1.70beta2
#
DISCID=8f10090a
DTITLE=Lee Morgan - Delightfulee
DYEAR=1900
DGENRE=Jazz
TTITLE0=Ca-Lee
TTITLE1=Zambia
TTITLE2=Yesterday
TTITLE3=Sunrise, Sunset
TTITLE4=Nite Flite
TTITLE5=The Delightful Deggie
TTITLE6=Need I?
TTITLE7=Filet of Soul A.K.A. Hoppin' John
TTITLE8=Zambia - (Big Band Version)
TTITLE9=The Delightful Deggie -(Big Band Version)
EXTD=
EXTT0=
EXTT1=
EXTT2=
EXTT3=
EXTT4=
EXTT5=
EXTT6=
EXTT7=
EXTT8=
EXTT9=
PLAYORDER=
